# xmcd
#
# Track frame offsets: 
#        150
#        9882
#        19767
#        33392
#        44355
#        55240
#        65225
#        77430
#        88854
#        99187
#        109277
#        118745
#        130115
#        140957
#        153857
#        166442
#        180422
#        198507
#        213767
#        231340
#        247900
#        259292
#
# Disc length: 3644 seconds
#
# Revision: 8
# Processed by: cddbd v1.5.2PL0 Copyright (c) Steve Scherf et al.
# Submitted via: ExactAudioCopyFreeDBPlugin 1.0
#
DISCID=2b0e3a16
DTITLE=Various Artist - Floor Fillers CD 1
DYEAR=1900
DGENRE=Northern Soul
TTITLE0=Fascinations - Girls Are Out To Get You
TTITLE1=Jackie Wilson - Nothing But Blue Skies
TTITLE2=Erma Franklin - I Get The Sweetest Feeling
TTITLE3=Billy Butler - The Right Track
TTITLE4=Williams and Watson - Too Late
TTITLE5=Gloria Jones - Tainted Love
TTITLE6=Dean Parrish - I'm On My Way
TTITLE7=Laura Greene - Moonlight Music and You
TTITLE8=Artistics - Hope We Have
TTITLE9=Marvin Smith - Have More Time
TTITLE10=Clifford Curry - I Can't Get A Hold Of Myself
TTITLE11=Cooperettes - Shing A Ling
TTITLE12=Lorraine Chandler - I Can't Change
TTITLE13=Herb Ward - Honest To Goodness
TTITLE14=Barbara Acklin - Just Ain't No Love
TTITLE15=Tobi Legend - Time Will Pass You By
TTITLE16=Chuck Jackson - All Over The World
TTITLE17=David Ruffin and Eddie Kendricks - I Couldn't Believe It
TTITLE18=Gladys Knight and The Pips - Baby Baby Don't Waste My Time
TTITLE19=Mandrill - It's Too Late
TTITLE20=Judy Freeman - Hold On
TTITLE21=John Gary Williams - The Whole Damn World Is Going Crazy
EXTD=tim1701\n
EXTT0=
EXTT1=
EXTT2=
EXTT3=
EXTT4=
EXTT5=
EXTT6=
EXTT7=
EXTT8=
EXTT9=
EXTT10=
EXTT11=
EXTT12=
EXTT13=
EXTT14=
EXTT15=
EXTT16=
EXTT17=
EXTT18=
EXTT19=
EXTT20=
EXTT21=
PLAYORDER=
